<svg aria-hidden="true" style="width:0;height:0;position:absolute;overflow:hidden" xmlns="http://www.w3.org/2000/svg"><defs><symbol id="icon-search" viewBox="0 0 26 32"><path d="M9.55 4.094c-2.575.35-5.15 1.719-6.775 3.588C.906 9.826-.081 12.57.019 15.344c.063 1.637.381 2.944 1.081 4.4 1.131 2.363 2.769 4.006 5.1 5.131 1.744.837 3.388 1.181 5.269 1.106 2.019-.087 3.819-.656 5.469-1.725l.281-.181 2.813 2.794c3.188 3.175 3.094 3.1 3.969 3.1.456 0 .575-.025.844-.169.375-.2.781-.606.975-.988.119-.225.15-.381.15-.781 0-.919.119-.769-3.063-3.969l-2.831-2.844.181-.281c1.788-2.756 2.225-6.25 1.181-9.387-.762-2.3-2.275-4.313-4.219-5.625-2.256-1.519-5.056-2.188-7.669-1.831zm2.919 4.05c2.4.525 4.444 2.356 5.175 4.637.269.831.325 1.2.325 2.219 0 1.325-.219 2.269-.756 3.244-1.031 1.881-2.725 3.169-4.769 3.619-.588.125-2.231.144-2.787.025-1.425-.306-2.581-.931-3.6-1.944-1.287-1.294-1.944-2.769-2.037-4.6-.112-2.2.763-4.225 2.438-5.656 1.05-.9 2.162-1.406 3.525-1.625.506-.081 1.963-.031 2.488.081z"/></symbol></defs></svg>