<svg aria-hidden="true" style="position: absolute; width: 0; height: 0; overflow: hidden;" version="1.1" xmlns="http://www.w3.org/2000/svg" xmlns:xlink="http://www.w3.org/1999/xlink">
<defs>
<symbol id="icon-search" viewBox="0 0 26 32">
<path d="M9.55 4.094c-2.575 0.35-5.15 1.719-6.775 3.588-1.869 2.144-2.856 4.888-2.756 7.662 0.063 1.637 0.381 2.944 1.081 4.4 1.131 2.363 2.769 4.006 5.1 5.131 1.744 0.837 3.388 1.181 5.269 1.106 2.019-0.087 3.819-0.656 5.469-1.725l0.281-0.181 2.813 2.794c3.188 3.175 3.094 3.1 3.969 3.1 0.456 0 0.575-0.025 0.844-0.169 0.375-0.2 0.781-0.606 0.975-0.988 0.119-0.225 0.15-0.381 0.15-0.781 0-0.919 0.119-0.769-3.063-3.969l-2.831-2.844 0.181-0.281c1.788-2.756 2.225-6.25 1.181-9.387-0.762-2.3-2.275-4.313-4.219-5.625-2.256-1.519-5.056-2.188-7.669-1.831zM12.469 8.144c2.4 0.525 4.444 2.356 5.175 4.637 0.269 0.831 0.325 1.2 0.325 2.219 0 1.325-0.219 2.269-0.756 3.244-1.031 1.881-2.725 3.169-4.769 3.619-0.588 0.125-2.231 0.144-2.787 0.025-1.425-0.306-2.581-0.931-3.6-1.944-1.287-1.294-1.944-2.769-2.037-4.6-0.112-2.2 0.763-4.225 2.438-5.656 1.050-0.9 2.162-1.406 3.525-1.625 0.506-0.081 1.963-0.031 2.488 0.081z"></path>
</symbol>
</defs>
</svg>
